<?xml version="1.0" encoding="UTF-8"?>
<svg xmlns="http://www.w3.org/2000/svg" version="1.1" viewBox="0 0 2000 2000">
  <defs>
    <style>
      .cls-1 {
        fill: #b6b7ba;
      }

      .cls-1, .cls-2, .cls-3, .cls-4, .cls-5, .cls-6, .cls-7, .cls-8, .cls-9, .cls-10, .cls-11, .cls-12, .cls-13, .cls-14, .cls-15, .cls-16, .cls-17, .cls-18, .cls-19, .cls-20, .cls-21 {
        fill-rule: evenodd;
      }

      .cls-2 {
        fill: #3b4fcf;
      }

      .cls-3 {
        fill: #ee2d3b;
      }

      .cls-4 {
        fill: #b5b6b9;
      }

      .cls-5 {
        fill: #e9ebfa;
      }

      .cls-6 {
        fill: #fefefe;
      }

      .cls-7 {
        fill: #fefdfd;
      }

      .cls-8 {
        fill: #ce2835;
      }

      .cls-9 {
        fill: #ce2634;
      }

      .cls-10 {
        fill: #3f54d0;
      }

      .cls-11 {
        fill: #e7e7e9;
      }

      .cls-12 {
        fill: #da666f;
      }

      .cls-13 {
        fill: #c2c8e9;
      }

      .cls-14 {
        fill: #3e51cf;
      }

      .cls-15 {
        fill: #e7e6e8;
      }

      .cls-16 {
        fill: #b5b5b9;
      }

      .cls-17 {
        fill: #ed2d3b;
      }

      .cls-18 {
        fill: #c2c8ea;
      }

      .cls-19 {
        fill: #3248ce;
      }

      .cls-20 {
        fill: #cf2b38;
      }

      .cls-21 {
        fill: #da656e;
      }
    </style>
  </defs>
  <!-- Generator: Adobe Illustrator 28.7.4, SVG Export Plug-In . SVG Version: 1.2.0 Build 166)  -->
  <g>
    <g id="Layer_1">
      <path class="cls-21" d="M868.7,35.9c74.5-6.3,150.2-8.4,227-6.3v37.8h-6.3v-31.5h-220.7Z"/>
      <path class="cls-9" d="M868.7,35.9h220.7v31.5c-74.2-9.7-147.8-7.6-220.7,6.3v-37.8Z"/>
      <path class="cls-17" d="M1089.5,67.4h6.3c98.5,11.1,193.1,36.4,283.8,75.7-33.3,41.7-69,81.6-107.2,119.8-25.2,21-48.3,44.1-69.4,69.4-52.9,46.6-101.2,97-145,151.3-55.4-2.6-110,1.6-164,12.6-46.2-50.4-94.6-98.8-145-145-21-25.2-44.1-48.3-69.4-69.4-36.2-38.3-72-76.1-107.2-113.5,90.8-49,187.5-80.5,290.1-94.6h6.3c72.9-13.9,146.5-16,220.7-6.3Z"/>
      <path class="cls-15" d="M1379.5,143.1c36.4,23.5,74.2,45.6,113.5,66.2,123.3,82.3,226.3,184.3,309,305.8-6.6-.9-12.9.1-18.9,3.2-30.7,31.8-62.2,62.2-94.6,91.4-82-144-197.6-252.2-346.8-324.8-22.1-11.1-45.2-18.5-69.4-22.1,38.2-38.2,73.9-78.1,107.2-119.8Z"/>
      <path class="cls-15" d="M572.4,168.3c35.2,37.4,71,75.2,107.2,113.5-177.6,76.7-307.9,202.8-391,378.4-36.1-36.1-73.9-69.7-113.5-100.9,41.3-59.3,84.4-118.2,129.3-176.6,78.8-86,168.2-157.5,268-214.4Z"/>
      <path class="cls-7" d="M1272.3,262.9c24.1,3.6,47.2,11,69.4,22.1,149.3,72.5,264.9,180.8,346.8,324.8-18.7,29.2-41.8,54.4-69.4,75.7-63-112.5-149.2-203.9-258.5-274.3-53.2-26.6-105.7-52.9-157.6-78.8,21-25.2,44.1-48.3,69.4-69.4Z"/>
      <path class="cls-1" d="M1940.8,880.9h-12.6c-5.7-4.5-7.8-10.8-6.3-18.9,25.2-92.1,34.6-186.7,28.4-283.8-8.7-83.6-43.4-154-104-211.2-65.3-36.9-132.6-70.5-201.8-100.9-56.4-37.5-111.1-77.4-164-119.8-117.5-75.6-245.7-104-384.7-85.1v-12.6c143.8-18.1,276.2,12.4,397.3,91.4,88.9,80.2,189.8,141.2,302.7,182.9,96.8,51.4,152.5,132.4,167.1,242.8,4.2,52.5,4.2,105.1,0,157.6-11.2,52.1-18.5,104.6-22.1,157.6Z"/>
      <path class="cls-7" d="M679.6,281.8c25.2,21,48.3,44.1,69.4,69.4-144.2,66.5-258.8,167.4-343.7,302.7-12.2,22.4-22.7,45.5-31.5,69.4-4.2,4.7-9.5,6.8-15.8,6.3-25.2-21-48.3-44.1-69.4-69.4,83.1-175.6,213.4-301.7,391-378.4Z"/>
      <path class="cls-15" d="M1203,332.3c51.9,26,104.5,52.2,157.6,78.8,109.3,70.4,195.5,161.9,258.5,274.3-42,46.2-86.2,90.4-132.4,132.4-80.1-191.5-223-302.9-428.8-334.2,43.8-54.3,92.1-104.8,145-151.3Z"/>
      <path class="cls-15" d="M748.9,351.2c50.4,46.2,98.8,94.6,145,145-172,36.3-294.9,135.1-368.9,296.4-9.4,24.9-16.7,50.1-22.1,75.7-48.5-46.4-96.9-92.7-145-138.7,6.3.5,11.5-1.6,15.8-6.3,8.8-23.9,19.3-47,31.5-69.4,84.9-135.3,199.4-236.2,343.7-302.7Z"/>
      <path class="cls-16" d="M868.7,54.8v18.9h-6.3c-95.2-20.1-191.9-23.2-290.1-9.5-119.3,22.2-206.6,86.3-261.7,192.3-19.6,64.4-42.7,127.4-69.4,189.2-37.4,60.1-79.5,116.9-126.1,170.3-22.1,31.6-41,65.2-56.8,100.9-20.9,55.2-19.9,109.8,3.2,164h-12.6c-15.2-54.3-16.3-108.9-3.2-164,17.7-39.7,38.7-77.5,63.1-113.5,92-93.6,153-205,182.9-334.2,45.1-103.9,121.8-172.2,230.2-204.9,114.9-25.9,230.6-29,346.8-9.5Z"/>
      <path class="cls-3" d="M1802,515.1c63.8,107.2,103.7,222.8,119.8,346.8-1.5,8.1.6,14.4,6.3,18.9,7.4,75.6,7.4,151.3,0,227-16.3,105.6-47.8,206.5-94.6,302.7-39.6-31.2-77.4-64.8-113.5-100.9-21-25.2-44.1-48.3-69.4-69.4-46.2-50.4-94.6-98.8-145-145,5.4-52.5,6.4-105,3.2-157.6-6-40.5-13.4-80.4-22.1-119.8,46.2-42,90.4-86.2,132.4-132.4,27.6-21.3,50.7-46.5,69.4-75.7,32.4-29.2,63.9-59.7,94.6-91.4,6-3,12.3-4.1,18.9-3.2Z"/>
      <path class="cls-10" d="M830.9,1461c-91.5-212.4-185.1-424.7-280.6-636.9-3.1,12.4-4.2,25.1-3.2,37.8-6.2-12-12.5-24.6-18.9-37.8,45.9-22.3,92.1-43.3,138.7-63.1,37.7,71.3,72.4,144.8,104,220.7,2.6,2.9,5.8,5,9.5,6.3,134.7-63.2,269.2-126.2,403.6-189.2,6.8-5.5,7.9-11.8,3.2-18.9-30-66.3-58.4-133.6-85.1-201.8,2.3-4.3,4.4-8.5,6.3-12.6,10.7,1,21.2,0,31.5-3.2,15.6-18.4,34.5-25.7,56.8-22.1,92.4,212.1,184.9,424.4,277.5,636.9-210.8,101.2-425.2,195.7-643.2,283.8Z"/>
      <path class="cls-3" d="M175.1,559.3c39.6,31.2,77.4,64.8,113.5,100.9,21,25.2,44.1,48.3,69.4,69.4,48.2,46.1,96.5,92.3,145,138.7-10.2,62.6-14.4,125.6-12.6,189.2-52.5,48.3-103,98.8-151.3,151.3-25.2,21-48.3,44.1-69.4,69.4-31.8,35-65.5,69.7-100.9,104-3.7,2.9-8,4-12.6,3.2-40.3-89.2-67.6-181.7-82-277.5-8.4-75.7-8.4-151.3,0-227,15-112.6,48.7-219.8,100.9-321.6Z"/>
      <path class="cls-18" d="M1108.4,565.6c-1.9,4.1-4,8.3-6.3,12.6,26.7,68.2,55.1,135.4,85.1,201.8,4.7,7.2,3.7,13.5-3.2,18.9-134.3,63-268.9,126-403.6,189.2-3.7-1.3-6.8-3.4-9.5-6.3-31.6-75.9-66.3-149.4-104-220.7,142-74.7,289.2-139.9,441.4-195.5Z"/>
      <path class="cls-10" d="M818.3,729.5c6.3-.5,11.5,1.6,15.8,6.3,24.1,51.3,48.3,102.8,72.5,154.5-22.2,21.1-48.4,36.9-78.8,47.3-15-10.8-25.5-25.5-31.5-44.1-16.4-39.7-32.2-79.7-47.3-119.8,2.1-4.2,4.2-8.4,6.3-12.6,21.7-10.6,42.7-21.1,63.1-31.5Z"/>
      <path class="cls-8" d="M49,880.9h25.2c-8.4,75.7-8.4,151.3,0,227h-37.8c-4.1-78.1.1-153.7,12.6-227Z"/>
      <path class="cls-20" d="M1928.1,880.9h31.5c2.1,76.8,0,152.5-6.3,227h-25.2c7.4-75.7,7.4-151.4,0-227Z"/>
      <path class="cls-13" d="M975.9,950.2c124.8-.5,157.4,54.1,97.7,164-32.8,24.1-69.6,31.4-110.4,22.1-58.5-36.5-72.2-85.9-41-148.2,16.6-15.1,34.5-27.7,53.6-37.8Z"/>
      <path class="cls-14" d="M1007.5,962.9c33.4-2.9,48.2,11.8,44.1,44.1-14.9-1.1-29.6-3.2-44.1-6.3v-37.8Z"/>
      <path class="cls-2" d="M1001.2,1032.2c11.6-1.8,20.1,2.5,25.2,12.6-9.1,12.9-21.7,19.3-37.8,18.9-.9-13,3.4-23.5,12.6-31.5Z"/>
      <path class="cls-15" d="M490.4,1057.4c31.1,207.3,144.6,348.1,340.5,422.5-39.7,50.2-83.9,96.5-132.4,138.7-120.9-69.3-218.6-163.9-293.2-283.8-18-38.9-35.8-77.8-53.6-116.7-2.1-6.5-6.3-9.6-12.6-9.5,48.3-52.5,98.8-103,151.3-151.3Z"/>
      <path class="cls-15" d="M1505.6,1095.3c50.4,46.2,98.8,94.6,145,145-5.5-.8-9.7,1.3-12.6,6.3-73,173.9-194.9,300-365.7,378.4-50.2-39.7-96.5-83.9-138.7-132.4,200.2-61.5,324.2-193.9,372-397.3Z"/>
      <path class="cls-19" d="M830.9,1461h-18.9c-86.3-200-174.6-399.7-264.8-599.1-1-12.8,0-25.4,3.2-37.8,95.5,212.2,189.1,424.5,280.6,636.9Z"/>
      <path class="cls-7" d="M339.1,1208.8c6.3-.2,10.5,3,12.6,9.5,17.8,38.8,35.6,77.7,53.6,116.7,74.6,119.8,172.4,214.4,293.2,283.8-21,25.2-44.1,48.3-69.4,69.4-171.5-91.6-291.3-228.2-359.4-409.9,21-25.2,44.1-48.3,69.4-69.4Z"/>
      <path class="cls-6" d="M1650.7,1240.3c25.2,21,48.3,44.1,69.4,69.4-76.6,175.3-200.6,305.7-372,391-27.3-23.1-52.5-48.3-75.7-75.7,170.9-78.4,292.8-204.5,365.7-378.4,2.9-5,7.1-7.1,12.6-6.3Z"/>
      <path class="cls-15" d="M269.7,1278.1c68.2,181.7,188,318.3,359.4,409.9-31.5,35.7-65.2,69.4-100.9,100.9-163.3-98.2-287.4-232.7-372-403.6,4.7.8,8.9-.2,12.6-3.2,35.4-34.4,69.1-69,100.9-104Z"/>
      <path class="cls-11" d="M1720,1309.7c36.1,36.1,73.9,69.7,113.5,100.9-93.8,167.4-222.1,301.9-384.7,403.6-31.2-39.6-64.8-77.4-100.9-113.5,171.5-85.3,295.5-215.6,372-391Z"/>
      <path class="cls-5" d="M849.8,1398c12.5-.1,18.8,6.2,18.9,18.9.4,11.1-4.8,17.4-15.8,18.9-19.5-10.7-20.5-23.4-3.2-37.8Z"/>
      <path class="cls-3" d="M830.9,1479.9c99.5,29.1,200.4,33.3,302.7,12.6,42.3,48.6,88.5,92.7,138.7,132.4,23.1,27.3,48.3,52.5,75.7,75.7,36.1,36.1,69.7,73.9,100.9,113.5-110.8,57.2-228.5,92.9-353.1,107.2h-6.3c-74.1,8.8-147.7,6.7-220.7-6.3-114.1-12.9-221.3-47.5-321.6-104-9.9-4.8-16.2-12.1-18.9-22.1,35.7-31.5,69.4-65.2,100.9-100.9,25.2-21,48.3-44.1,69.4-69.4,48.6-42.3,92.7-88.5,132.4-138.7Z"/>
      <path class="cls-4" d="M55.3,1107.9h12.6c-20.1,82.9-27.4,167-22.1,252.2,4.1,116.5,55.6,203.8,154.5,261.7,112.8,49.7,211.6,119.1,296.4,208.1,110.7,80,234.8,114.7,372,104v12.6c-114.4,11.8-221.6-10.3-321.6-66.2-67.3-54.7-134.5-109.3-201.8-164-55.7-33.1-112.5-64.7-170.3-94.6-93-67.2-140.3-158.7-141.9-274.3-3.4-80.9,3.9-160.8,22.1-239.6Z"/>
      <path class="cls-16" d="M1940.8,1107.9h12.6c21.9,78.5,14.5,154.2-22.1,227-54.3,77.5-111.1,153.1-170.3,227-33.6,79.9-67.3,159.7-100.9,239.6-75.2,102.3-177.2,158-305.8,167.1-87.3,4.1-173.4-3.2-258.5-22.1v-6.3c69.1,8.4,138.5,14.7,208.1,18.9,33.9-.6,67.5-3.8,100.9-9.5,111.9-19.6,197-77.4,255.4-173.4,39-145.4,110.5-271.5,214.4-378.4,23.7-28.4,42.6-59.9,56.8-94.6,33.3-64,36.5-129.1,9.5-195.5Z"/>
      <path class="cls-9" d="M868.7,1915c73,13,146.6,15.1,220.7,6.3v31.5h-220.7v-37.8Z"/>
      <path class="cls-12" d="M1089.5,1921.3h6.3v25.2c-35.5,8.4-73.3,12.6-113.5,12.6-38.9,0-76.8-2.1-113.5-6.3h220.7v-31.5Z"/>
    </g>
  </g>
</svg>