<?xml version="1.0" encoding="UTF-8"?>
<svg id="Layer_1" xmlns="http://www.w3.org/2000/svg" version="1.1" viewBox="0 0 24 24">
  <!-- Generator: Adobe Illustrator 29.6.1, SVG Export Plug-In . SVG Version: 2.1.1 Build 9)  -->
  <defs>
    <style>
      .st0 {
        fill: #fff;
        fill-rule: evenodd;
      }
    </style>
  </defs>
  <path class="st0" d="M6.7,9.3v-4c0-2.9,2.4-5.3,5.3-5.3s5.3,2.4,5.3,5.3v4h1.3c1.5,0,2.7,1.2,2.7,2.7v9.3c0,1.5-1.2,2.7-2.7,2.7H5.3c-1.5,0-2.7-1.2-2.7-2.7v-9.3c0-1.5,1.2-2.7,2.7-2.7h1.3ZM9.3,5.3c0-1.5,1.2-2.7,2.7-2.7s2.7,1.2,2.7,2.7v4h-5.3v-4ZM12,13.3c.7,0,1.3.6,1.3,1.3v4c0,.7-.6,1.3-1.3,1.3s-1.3-.6-1.3-1.3v-4c0-.7.6-1.3,1.3-1.3Z"/>
</svg>