<?xml version="1.0" encoding="utf-8"?>
<!-- Generator: Adobe Illustrator 25.0.1, SVG Export Plug-In . SVG Version: 6.00 Build 0)  -->
<svg version="1.1" id="Layer_1" xmlns="http://www.w3.org/2000/svg" xmlns:xlink="http://www.w3.org/1999/xlink" x="0px" y="0px"
	 viewBox="0 0 800 800" style="enable-background:new 0 0 800 800;" xml:space="preserve">
<style type="text/css">
	.st0{fill:none;stroke:#FFD700;stroke-width:5.6693;stroke-miterlimit:10;}
	.st1{fill:#0057B7;}
	.st2{fill:#FFD700;}
</style>
<g>
	<line class="st0" x1="400" y1="157.47" x2="400" y2="286.82"/>
	<line class="st0" x1="376.23" y1="158.64" x2="388.91" y2="287.37"/>
	<line class="st0" x1="352.69" y1="162.13" x2="377.92" y2="288.99"/>
	<line class="st0" x1="329.6" y1="167.91" x2="367.15" y2="291.69"/>
	<line class="st0" x1="307.19" y1="175.93" x2="356.69" y2="295.44"/>
	<line class="st0" x1="285.67" y1="186.11" x2="346.65" y2="300.18"/>
	<line class="st0" x1="265.26" y1="198.35" x2="337.12" y2="305.89"/>
	<line class="st0" x1="246.14" y1="212.52" x2="328.2" y2="312.51"/>
	<line class="st0" x1="228.51" y1="228.51" x2="319.97" y2="319.97"/>
	<line class="st0" x1="212.52" y1="246.14" x2="312.51" y2="328.2"/>
	<line class="st0" x1="198.35" y1="265.26" x2="305.89" y2="337.12"/>
	<line class="st0" x1="186.11" y1="285.67" x2="300.18" y2="346.65"/>
	<line class="st0" x1="175.93" y1="307.19" x2="295.44" y2="356.69"/>
	<line class="st0" x1="167.91" y1="329.6" x2="291.69" y2="367.15"/>
	<line class="st0" x1="162.13" y1="352.69" x2="288.99" y2="377.92"/>
	<line class="st0" x1="158.64" y1="376.23" x2="287.37" y2="388.91"/>
	<line class="st0" x1="157.47" y1="400" x2="286.82" y2="400"/>
	<line class="st0" x1="642.53" y1="400" x2="513.18" y2="400"/>
	<line class="st0" x1="641.36" y1="376.23" x2="512.63" y2="388.91"/>
	<line class="st0" x1="637.87" y1="352.69" x2="511.01" y2="377.92"/>
	<line class="st0" x1="632.09" y1="329.6" x2="508.31" y2="367.15"/>
	<line class="st0" x1="624.07" y1="307.19" x2="504.56" y2="356.69"/>
	<line class="st0" x1="613.89" y1="285.67" x2="499.82" y2="346.65"/>
	<line class="st0" x1="601.65" y1="265.26" x2="494.11" y2="337.12"/>
	<line class="st0" x1="587.48" y1="246.14" x2="487.49" y2="328.2"/>
	<line class="st0" x1="571.49" y1="228.51" x2="480.03" y2="319.97"/>
	<line class="st0" x1="553.86" y1="212.52" x2="471.8" y2="312.51"/>
	<line class="st0" x1="534.74" y1="198.35" x2="462.88" y2="305.89"/>
	<line class="st0" x1="514.33" y1="186.11" x2="453.35" y2="300.18"/>
	<line class="st0" x1="492.81" y1="175.93" x2="443.31" y2="295.44"/>
	<line class="st0" x1="470.4" y1="167.91" x2="432.85" y2="291.69"/>
	<line class="st0" x1="447.31" y1="162.13" x2="422.08" y2="288.99"/>
	<line class="st0" x1="423.77" y1="158.64" x2="411.09" y2="287.37"/>
</g>
<g>
	<g>
		<g transform="translate(174.171955, 285.753549)">
			<g>
				<path class="st1" d="M165.31,408.51c0.73-4.99,3.1-8.66,7.1-11.03c3.98-2.37,9.16-3.09,15.53-2.18
					c5.91,0.83,10.97,2.65,15.2,5.49l-1.51,10.89c-3.5-2.15-6.49-3.76-8.95-4.83c-2.49-1.04-4.83-1.73-7.01-2.04
					c-2.56-0.36-4.57-0.13-6.06,0.66c-1.51,0.78-2.41,2.14-2.7,4.07c-0.15,1.1,0.02,2.11,0.52,3.03c0.47,0.95,1.25,1.89,2.32,2.84
					c1.08,0.95,3.29,2.52,6.63,4.73c3.16,2.05,5.48,3.93,6.96,5.63c1.49,1.7,2.6,3.6,3.36,5.68c0.73,2.08,0.9,4.43,0.52,7.05
					c-0.69,4.89-2.9,8.49-6.63,10.79c-3.72,2.33-8.5,3.09-14.34,2.27c-2.84-0.41-5.51-1.14-8.05-2.18c-2.52-1.04-5.11-2.4-7.76-4.07
					l5.02-8.57c2.82,1.63,5.15,2.84,7.01,3.6c1.83,0.76,3.69,1.25,5.59,1.51c2.18,0.31,3.93,0.02,5.25-0.85
					c1.33-0.89,2.12-2.17,2.37-3.83c0.13-1.02,0.02-1.94-0.33-2.79c-0.34-0.83-0.99-1.66-1.94-2.51s-3.24-2.51-6.91-4.97
					c-4.83-3.2-8.01-6.15-9.56-8.9C165.35,415.3,164.82,412.13,165.31,408.51z"/>
			</g>
		</g>
	</g>
	<g>
		<g transform="translate(161.451212, 284.210115)">
			<g>
				<path class="st1" d="M141.86,383.65v13.92l19.41,5.92l7.81-11.55l12.17,3.69l-35.17,47.86l-13.87-4.21l-2.56-59.36
					L141.86,383.65z M141.63,407.84c0.09,12.56,0.14,19.66,0.14,21.3c0,1.67-0.02,2.98-0.09,3.93c1.78-2.88,6.39-9.88,13.87-21.02
					L141.63,407.84z"/>
			</g>
		</g>
	</g>
	<g>
		<g transform="translate(145.855821, 279.548321)">
			<g>
				<path class="st1" d="M89.9,418.73l-10.7-5.35l41.94-41.42l11.5,5.73l-8,58.42L114,430.75l5.44-34.41
					c0.32-2.02,0.79-4.34,1.42-6.96c0.6-2.59,1.08-4.37,1.42-5.35c-1.33,1.96-4,5.18-8.05,9.7L89.9,418.73z"/>
			</g>
		</g>
	</g>
	<g>
		<g transform="translate(131.954829, 272.397254)">
			<g>
				<path class="st1" d="M115.56,367.77l-30.86,46.49l-9.89-6.53l30.86-46.49L115.56,367.77z"/>
			</g>
		</g>
	</g>
	<g>
		<g transform="translate(125.594886, 268.818195)">
			<g>
				<path class="st1" d="M66.34,326.7l11.22,10.04l-10.08,47.62l0.28,0.28c4.62-5.94,7.98-10.07,10.08-12.4l17.52-19.6l7.91,7.05
					l-37.21,41.61l-11.17-9.94l9.85-47.29l-0.19-0.19c-4.57,5.66-7.86,9.6-9.85,11.83l-17.61,19.69l-7.95-7.1L66.34,326.7z"/>
			</g>
		</g>
	</g>
	<g>
		<g transform="translate(111.219265, 256.030611)">
			<g>
				<path class="st1" d="M37.26,334.88l-13.35-17.61l23.05-17.47c3.1,2.12,5.8,4.3,8.09,6.53c2.31,2.25,4.45,4.69,6.44,7.34
					c5.09,6.72,6.99,13.34,5.73,19.83c-1.25,6.5-5.59,12.56-12.97,18.18c-7.16,5.42-14.31,7.62-21.44,6.58
					c-7.12-1.04-13.46-5.23-18.98-12.54c-3.43-4.54-5.85-9.62-7.24-15.24l9.89-2.6c0.85,4.52,2.6,8.52,5.25,12.02
					c3.1,4.07,6.95,6.3,11.55,6.67c4.58,0.38,9.18-1.18,13.82-4.69c4.83-3.66,7.76-7.43,8.8-11.31c1.04-3.91,0.13-7.76-2.75-11.55
					c-1.48-1.95-3.2-3.8-5.16-5.54l-9.28,7.01l6.39,8.43L37.26,334.88z"/>
			</g>
		</g>
	</g>
	<g>
		<g transform="translate(97.653917, 237.292862)">
			<g>
				<path class="st1" d="M-20,273.7l33.28-14.01c3.82-1.61,7.51-2.15,11.08-1.66c3.57,0.47,6.8,2.01,9.7,4.59
					c2.88,2.59,5.23,6.08,7.05,10.46c2.78,6.63,3.25,12.49,1.42,17.56c-1.86,5.09-5.73,8.85-11.6,11.31l-33.18,13.96l-4.59-10.89
					l31.53-13.25c3.95-1.67,6.52-3.69,7.72-6.06c1.21-2.37,1.03-5.4-0.52-9.09c-1.51-3.56-3.55-5.75-6.11-6.58
					c-2.56-0.82-5.82-0.39-9.8,1.28l-31.43,13.21L-20,273.7z"/>
			</g>
		</g>
	</g>
	<g>
		<g transform="translate(90.687413, 220.808705)">
			<g>
				<path class="st1" d="M26.31,216.29l2.93,13.11L9.46,248.76l4.59,4.17l19.46-4.36l2.6,11.55l-54.49,12.17l-2.6-11.55l24.95-5.59
					l-7.38-3.12l-21.87-10.6l-2.84-12.83l28.36,13.59L26.31,216.29z"/>
			</g>
		</g>
	</g>
	<g>
		<g transform="translate(87.160505, 205.573709)">
			<g>
				<path class="st1" d="M-1.49,218.88l-0.24-3.83c-0.19-3.72-0.95-6.44-2.27-8.14c-1.35-1.7-3.37-2.49-6.06-2.37
					c-2.65,0.17-4.47,1.17-5.49,3.03c-1.04,1.87-1.47,4.71-1.28,8.52l0.24,3.6L-1.49,218.88z M8.12,218.36l21.35-1.14l0.62,11.79
					l-55.72,3.03l-0.9-16.24c-0.38-7.57,0.71-13.25,3.27-17.04c2.53-3.81,6.6-5.88,12.21-6.2c3.29-0.15,6.27,0.6,8.95,2.27
					c2.65,1.68,4.78,4.14,6.39,7.38c12.09-9.09,19.88-14.98,23.39-17.7l0.71,13.07L7.74,212.07L8.12,218.36z"/>
			</g>
		</g>
	</g>
	<g>
		<g transform="translate(86.166134, 190.094343)">
			<g>
				<path class="st1" d="M33.18,163.7l-13.68,2.51l-2.32,20.17l12.73,5.59l-1.47,12.64l-53.35-25.99l1.66-14.39l57.89-13.16
					L33.18,163.7z M9.32,167.87c-12.33,2.34-19.33,3.65-20.97,3.93c-1.63,0.28-2.9,0.47-3.79,0.57c3.1,1.23,10.79,4.54,23.1,9.94
					L9.32,167.87z"/>
			</g>
		</g>
	</g>
	<g>
		<g transform="translate(88.298022, 173.619434)">
			<g>
				<path class="st1" d="M34.48,164.35l-54.15-13.44l2.84-11.46l54.15,13.44L34.48,164.35z"/>
			</g>
		</g>
	</g>
	<g>
		<g transform="translate(89.526999, 166.427987)">
			<g>
				<path class="st1" d="M56.57,104.21l-5.68,13.96l-48.24,6.53l-0.14,0.33c7.1,2.34,12.12,4.11,15.05,5.3l24.33,9.89l-3.98,9.85
					l-51.69-21.07l5.63-13.87l47.86-6.63l0.09-0.28c-6.88-2.33-11.7-4.07-14.49-5.21L0.85,93.04l4.02-9.89L56.57,104.21z"/>
			</g>
		</g>
	</g>
	<g>
		<g transform="translate(97.257899, 148.372583)">
			<g>
				<path class="st1" d="M54.51,113.86L6.37,85.65l5.96-10.18l48.14,28.21L54.51,113.86z"/>
			</g>
		</g>
	</g>
	<g>
		<g transform="translate(100.6761, 141.803247)">
			<g>
				<path class="st1" d="M83.08,74.02L70.06,69.1l-12.4,16.05l8,11.36l-7.76,10.08l-32.28-49.8l8.85-11.46l56.38,18.6L83.08,74.02z
					 M60.5,65.21c-11.76-4.36-18.43-6.83-19.98-7.43c-1.54-0.59-2.72-1.09-3.55-1.47c2.02,2.65,6.91,9.46,14.67,20.4L60.5,65.21z"/>
			</g>
		</g>
	</g>
	<g>
		<g transform="translate(110.298676, 128.849804)">
			<g>
				<path class="st1" d="M119.75,42.85l-11.27,9.94L62.37,37.27l-0.28,0.24c5.34,5.28,9.04,9.08,11.12,11.41L90.63,68.6l-7.95,7.05
					l-36.97-41.8l11.17-9.94l45.82,15.29l0.24-0.19c-5.11-5.17-8.66-8.88-10.65-11.12L74.82,8.11l7.95-7.05L119.75,42.85z"/>
			</g>
		</g>
	</g>
	<g>
		<g transform="translate(129.868576, 112.638204)">
			<g>
				<path class="st1" d="M122.92-8.23c-3.95,2.02-6.22,5.09-6.86,9.18c-0.66,4.11,0.4,8.83,3.17,14.15
					c5.7,11.02,12.71,14.38,21.02,10.08c3.47-1.8,7.24-4.85,11.31-9.18l4.59,8.85c-3.22,3.79-7.34,6.98-12.36,9.56
					c-7.23,3.76-13.89,4.44-19.98,2.04c-6.06-2.39-11.2-7.68-15.43-15.86c-2.65-5.14-4.04-10.14-4.17-15.01
					c-0.15-4.85,0.98-9.23,3.41-13.11c2.44-3.88,6.01-7.03,10.75-9.47c4.83-2.49,10.28-3.83,16.38-4.02l0.99,10.32
					c-2.34,0.07-4.62,0.26-6.82,0.57C126.72-9.8,124.72-9.18,122.92-8.23z"/>
			</g>
		</g>
	</g>
	<g>
		<g transform="translate(142.963193, 105.555479)">
			<g>
				<path class="st1" d="M177.1-35.91l10.79,34.46c1.23,3.95,1.42,7.67,0.57,11.17c-0.83,3.5-2.65,6.57-5.49,9.18
					c-2.82,2.63-6.49,4.64-11.03,6.06c-6.85,2.15-12.72,2.07-17.61-0.24c-4.9-2.33-8.28-6.54-10.18-12.64L133.4-22.23l11.22-3.5
					l10.23,32.62c1.25,4.11,3.01,6.86,5.25,8.28c2.27,1.4,5.31,1.49,9.14,0.28c3.69-1.14,6.07-2.93,7.15-5.4
					c1.07-2.46,0.96-5.75-0.33-9.89l-10.18-32.52L177.1-35.91z"/>
			</g>
		</g>
	</g>
	<g>
		<g transform="translate(160.158934, 100.261883)">
			<g>
				<path class="st1" d="M185.58,21.33l-7.67-55.29l11.69-1.66l6.34,45.63l22.44-3.08l1.33,9.66L185.58,21.33z"/>
			</g>
		</g>
	</g>
	<g>
		<g transform="translate(173.293866, 98.336214)">
			<g>
				<path class="st1" d="M233.83,18.51l-11.83-0.05l0.28-45.97l-15.15-0.09l0.05-9.85l42.13,0.24l-0.05,9.85l-15.15-0.09
					L233.83,18.51z"/>
			</g>
		</g>
	</g>
	<g>
		<g transform="translate(186.746846, 98.098989)">
			<g>
				<path class="st1" d="M293.84-28.03l-6.2,35.55c-0.73,4.07-2.27,7.48-4.64,10.23c-2.34,2.71-5.37,4.59-9.09,5.63
					c-3.73,1.04-7.93,1.15-12.59,0.33c-7.08-1.23-12.25-4.01-15.53-8.33c-3.29-4.32-4.38-9.62-3.27-15.91l6.2-35.41l11.6,2.04
					l-5.87,33.66c-0.76,4.24-0.46,7.5,0.9,9.8c1.38,2.27,4.05,3.76,8,4.45c3.79,0.66,6.7,0.14,8.76-1.56
					c2.08-1.7,3.5-4.69,4.26-8.95l5.87-33.56L293.84-28.03z"/>
			</g>
		</g>
	</g>
	<g>
		<g transform="translate(204.38423, 101.150586)">
			<g>
				<path class="st1" d="M296.74,1.45l3.6,1.28c3.5,1.3,6.3,1.68,8.38,1.14c2.11-0.57,3.62-2.11,4.54-4.64
					c0.91-2.49,0.71-4.57-0.62-6.25c-1.33-1.7-3.79-3.2-7.38-4.5l-3.36-1.23L296.74,1.45z M293.43,10.44l-7.34,20.12l-11.12-4.07
					l19.17-52.4l15.29,5.59c7.1,2.59,11.88,5.81,14.34,9.66c2.49,3.86,2.77,8.41,0.85,13.68c-1.14,3.1-3.01,5.54-5.59,7.34
					c-2.59,1.78-5.67,2.75-9.23,2.93c3.56,14.7,5.92,24.2,7.05,28.5l-12.31-4.5l-5.21-24.71L293.43,10.44z"/>
			</g>
		</g>
	</g>
	<g>
		<g transform="translate(219.008867, 106.325978)">
			<g>
				<path class="st1" d="M333.81,55.03l3.08-13.59l-17.61-10.08l-10.18,9.56l-11.03-6.34l44.92-38.82l12.59,7.2l-10.7,58.42
					L333.81,55.03z M339.35,31.5c2.75-12.31,4.28-19.27,4.64-20.88c0.38-1.61,0.72-2.85,1.04-3.74c-2.37,2.4-8.46,8.21-18.27,17.42
					L339.35,31.5z"/>
			</g>
		</g>
	</g>
	<g>
		<g transform="translate(233.208794, 114.468459)">
			<g>
				<path class="st1" d="M332.33,55.51l34.98-43.5l9.23,7.38l-28.88,35.88l17.66,14.2l-6.11,7.62L332.33,55.51z"/>
			</g>
		</g>
	</g>
	<g>
		<g transform="translate(248.023835, 126.676202)">
			<g>
				<path class="st1" d="M389.39,117.5l-7.24-9.33l18.98-14.82l-13.59-17.42l-18.98,14.82l-7.29-9.33l44.02-34.32l7.29,9.33
					l-17.23,13.44l13.59,17.42l17.23-13.44l7.24,9.33L389.39,117.5z"/>
			</g>
		</g>
	</g>
	<g>
		<g transform="translate(259.152791, 141.109508)">
			<g>
				<path class="st1" d="M398.2,139.59l-15.34-28.26l49.09-26.56l15.34,28.26l-8.52,4.64l-9.7-17.85l-10.79,5.82l8.99,16.62
					l-8.52,4.59l-8.99-16.62l-12.69,6.86l9.7,17.85L398.2,139.59z"/>
			</g>
		</g>
	</g>
	<g>
		<g transform="translate(265.549581, 152.516817)">
			<g>
				<path class="st1" d="M428.08,135.67l1.28,3.6c1.25,3.5,2.77,5.88,4.54,7.15c1.76,1.25,3.91,1.44,6.44,0.57
					c2.49-0.92,3.95-2.44,4.4-4.54c0.44-2.08,0.01-4.92-1.28-8.52l-1.18-3.36L428.08,135.67z M419.04,138.89l-20.17,7.2l-3.98-11.17
					l52.55-18.79l5.44,15.34c2.56,7.12,3.15,12.88,1.8,17.23c-1.36,4.38-4.69,7.53-9.99,9.42c-3.1,1.1-6.18,1.23-9.23,0.38
					c-3.03-0.83-5.76-2.56-8.19-5.21c-9.03,12.12-14.82,19.99-17.37,23.62l-4.45-12.31l15.72-19.79L419.04,138.89z"/>
			</g>
		</g>
	</g>
	<g>
		<g transform="translate(270.711883, 167.532326)">
			<g>
				<path class="st1" d="M404.52,165.63l54.49-12.12l2.56,11.6l-54.49,12.12L404.52,165.63z"/>
			</g>
		</g>
	</g>
	<g>
		<g transform="translate(272.577596, 174.809628)">
			<g>
				<path class="st1" d="M409.78,201.98l-1.23-11.79l45.73-4.78l-1.61-15.05l9.8-1.04l4.4,41.89l-9.8,1.04l-1.56-15.05
					L409.78,201.98z"/>
			</g>
		</g>
	</g>
	<g>
		<g transform="translate(274.214404, 188.228179)">
			<g>
				<path class="st1" d="M407.89,241.95l13.49-3.36l1.14-20.31l-13.11-4.73l0.71-12.73l54.82,22.68l-0.76,14.49l-57,16.66
					L407.89,241.95z M431.42,236.36c12.21-3.12,19.12-4.88,20.73-5.25s2.86-0.65,3.79-0.8c-3.2-1.02-11.11-3.83-23.76-8.47
					L431.42,236.36z"/>
			</g>
		</g>
	</g>
	<g>
		<g transform="translate(273.518644, 204.424562)">
			<g>
				<path class="st1" d="M432.7,268.34l-5.07,21.54l-28.12-6.63c-0.31-3.76-0.34-7.24-0.09-10.46c0.26-3.2,0.76-6.39,1.51-9.61
					c1.93-8.21,5.81-13.91,11.65-17.09c5.83-3.2,13.27-3.72,22.3-1.56c8.77,2.05,15.02,6.15,18.75,12.31
					c3.72,6.18,4.54,13.73,2.46,22.63c-1.33,5.55-3.73,10.67-7.2,15.38l-8.33-6.01c2.96-3.5,4.95-7.41,5.96-11.69
					c1.16-4.99,0.43-9.37-2.22-13.16c-2.65-3.76-6.8-6.32-12.45-7.67c-5.91-1.4-10.69-1.25-14.34,0.43c-3.67,1.67-6.04,4.8-7.1,9.42
					c-0.57,2.39-0.92,4.9-1.04,7.53l11.36,2.65l2.41-10.27L432.7,268.34z"/>
			</g>
		</g>
	</g>
	<g>
		<g transform="translate(269.517662, 221.16871)">
			<g>
				<path class="st1" d="M385.63,303.84l12.26-29.68l51.55,21.35l-12.26,29.68l-8.95-3.69l7.76-18.75l-11.31-4.73l-7.24,17.42
					l-8.99-3.69l7.24-17.42l-13.3-5.49l-7.76,18.75L385.63,303.84z"/>
			</g>
		</g>
	</g>
	<g>
		<g transform="translate(262.058674, 238.702283)">
			<g>
				<path class="st1" d="M374.23,366.36c-7.48-5.43-11.88-11.46-13.21-18.08c-1.33-6.6,0.52-13.35,5.54-20.26
					c5.02-6.95,10.89-10.82,17.61-11.6c6.69-0.79,13.8,1.54,21.35,7.01c7.5,5.46,11.89,11.47,13.16,18.04
					c1.25,6.59-0.64,13.36-5.68,20.31c-5.02,6.94-10.86,10.79-17.52,11.55C388.82,374.1,381.74,371.78,374.23,366.36z
					 M398.13,333.41c-5.05-3.67-9.55-5.48-13.49-5.44c-3.94,0.06-7.3,2-10.08,5.82c-5.51,7.63-3.2,15.15,6.96,22.53
					c10.19,7.38,18.04,7.27,23.53-0.33c2.77-3.82,3.57-7.62,2.41-11.41C406.29,340.8,403.17,337.07,398.13,333.41z"/>
			</g>
		</g>
	</g>
	<g>
		<g transform="translate(251.212722, 253.998399)">
			<g>
				<path class="st1" d="M321.77,372.51l11.08-10.18l46.44,14.77l0.28-0.28c-5.47-5.18-9.25-8.94-11.36-11.27l-17.75-19.36
					l7.81-7.15l37.68,41.14l-11.03,10.08l-46.06-14.44l-0.19,0.19c5.18,5.11,8.78,8.77,10.79,10.98l17.85,19.46l-7.86,7.2
					L321.77,372.51z"/>
			</g>
		</g>
	</g>
	<g>
		<g transform="translate(236.814378, 266.998539)">
			<g>
				<path class="st1" d="M328.29,364.48l30.06,47.01l-9.94,6.34l-24.81-38.77l-19.08,12.21l-5.25-8.24L328.29,364.48z"/>
			</g>
		</g>
	</g>
	<g>
		<g transform="translate(225.354775, 274.197004)">
			<g>
				<path class="st1" d="M304.65,378.38l24.62,50.08l-10.6,5.25l-24.62-50.08L304.65,378.38z"/>
			</g>
		</g>
	</g>
	<g>
		<g transform="translate(219.059126, 277.887958)">
			<g>
				<path class="st1" d="M244.39,400.21l14.34-4.64l36.07,32.71l0.33-0.09c-2.77-6.98-4.65-11.96-5.63-14.96l-8.09-24.99l10.08-3.27
					l17.18,53.11l-14.2,4.59l-35.93-32.28l-0.24,0.05c2.59,6.78,4.34,11.61,5.25,14.49l8.14,25.14l-10.13,3.27L244.39,400.21z"/>
			</g>
		</g>
	</g>
	<g>
		<g transform="translate(200.563942, 283.728945)">
			<g>
				<path class="st1" d="M221.86,400.14l31.81-4.5l7.86,55.24l-31.81,4.5l-1.37-9.61l20.12-2.84l-1.7-12.12l-18.7,2.65l-1.37-9.61
					l18.7-2.65l-2.04-14.25l-20.12,2.84L221.86,400.14z"/>
			</g>
		</g>
	</g>
</g>
<path class="st0" d="M157,432c19.54-6.01,51.71-14.33,92-17c114.25-7.56,142.88,40.36,233,21c26.67-5.73,56.24-16.82,104-15
	c24.21,0.92,43.98,4.82,57,8"/>
<path class="st2" d="M400,304c-53.02,0-96,42.98-96,96c0,5.39,0.47,10.66,1.33,15.8c70.86,7.27,103.5,35.92,176.67,20.2
	c2.54-0.55,5.1-1.14,7.71-1.77C493.77,423.6,496,412.06,496,400C496,346.98,453.02,304,400,304z"/>
<path class="st0" d="M258,460c11.2-3.56,28.46-8.05,49.78-9.47c68.3-4.54,84.22,28.21,146.13,27.87
	c49.73-0.27,57.07-21.57,115.72-19.43c28.71,1.05,52.05,7.06,67.37,12.02"/>
<path class="st0" d="M177.7,507.13c16.24-7.21,40.48-15.89,70.95-19.43c6.05-0.7,23.94-2.54,47.3-0.84
	c19.31,1.4,48.32,5.66,81.85,19.21"/>
<path class="st0" d="M447.52,524.02c26.65,4.2,47.76,2.89,62.28,0.84c21.39-3.01,32.3-8.15,53.92-8.45
	c19.31-0.26,35.15,3.5,45.57,6.76"/>
<path class="st0" d="M204.73,551.05c6.68-4.66,18.43-11.61,34.63-15.2c16.31-3.62,29.98-2.26,38.01-0.84"/>
<path class="st0" d="M315.38,539.22c8.56-0.69,21.89-1.21,37.94,0.65c31.81,3.68,44.36,13.03,78.3,23.62
	c24.51,7.65,51.24,16,83.1,14.58c30.44-1.35,54.49-11.12,69.26-18.58"/>
<path class="st0" d="M283.29,601.73c5.3-4.27,18.49-13.71,38.01-16.05c17.3-2.07,30.86,2.49,37.17,5.07"/>
<path class="st0" d="M408.09,604.46c7.49,5.06,31.6,19.95,65.04,17.74c27.88-1.84,47.23-14.58,54.9-20.27"/>
</svg>
