<?xml version="1.0" encoding="UTF-8"?>
<svg id="Layer_1" xmlns="http://www.w3.org/2000/svg" version="1.1" viewBox="0 0 512 512">
  <!-- Generator: Adobe Illustrator 29.6.1, SVG Export Plug-In . SVG Version: 2.1.1 Build 9)  -->
  <defs>
    <style>
      .st0 {
        fill: #ef5455;
      }
    </style>
  </defs>
  <path class="st0" d="M264,272c0,4.4-3.6,8-8,8s-8-3.6-8-8,3.6-8,8-8,8,3.6,8,8ZM256,296c-4.4,0-8,3.6-8,8s3.6,8,8,8,8-3.6,8-8-3.6-8-8-8ZM251.2,242.1c1.2,4.9,8.3,4.6,9.6-.4,4.8-18.5,18.5-34.1,38.5-42.7,9.7-4.2,24.4-10.6,34.3-32.8-64.4,11.5-85.2-15.1-160.1-13.7,9.2,33.5,27.7,41.6,39.2,46.5,20,8.7,33.9,24.5,38.5,43.1ZM424,432c0,13.2-10.7,24-24,24H112c-13.3,0-24-10.8-24-24s10.7-24,24-24h8c0-76.7,26.2-120.6,73.8-139.1,14.8-5.8,15.1-19.2,0-25.8-48.9-21.1-73.7-62.3-73.7-139.1h-8c-13.3,0-24-10.7-24-24s10.7-24,24-24h288c13.3,0,24,10.7,24,24s-10.7,24-24,24h-8c0,76.7-24.8,118-73.7,139.1-15.2,6.6-14.9,20.1,0,25.8,47.5,18.4,73.8,62.3,73.8,139.1h8c13.3,0,24,10.8,24,24ZM148.8,408h15.5c22.5-45.9,68.1-86.4,91.7-77.9,27.6,9.9,64.8,33.5,89.9,77.9h17.3c0-81.4-31.6-103-55.4-112.2-17.9-7-29.3-21.8-29.6-38.8-.3-17.1,10.7-32.5,28.7-40.3,27.8-12,56.3-34.8,56.3-112.6h-214.4c0,77.9,28.5,100.6,56.3,112.6,18,7.8,29,23.2,28.7,40.3-.3,17-11.6,31.8-29.6,38.8-23.8,9.2-55.4,30.9-55.4,112.2Z"/>
</svg>